<svg width="25" height="24" viewBox="0 0 25 24" fill="none" xmlns="http://www.w3.org/2000/svg">
<path d="M11.1517 3.25102C11.0844 3.18952 11.0157 3.12797 10.9445 3.06642C9.56042 1.86802 7.15339 0.439453 3.54688 0.439453C3.15856 0.439453 2.84375 0.754266 2.84375 1.14258V1.64536C6.36383 1.83788 9.27641 2.61103 11.1517 3.25102Z" fill="#3A18D6"/>
<path d="M15.9365 2.56392C17.9141 2.05308 19.9998 1.74408 22.1557 1.64016V1.14258C22.1557 0.754266 21.8409 0.439453 21.4526 0.439453C17.846 0.439453 15.4391 1.86802 14.0549 3.06642C14.0179 3.09844 13.9818 3.13045 13.9458 3.16247C14.5174 2.96466 15.1822 2.75878 15.9365 2.56392Z" fill="#3A18D6"/>
<path d="M23.7969 3.00635C17.6774 3.00635 13.6591 4.7043 12.5 5.2645V5.27814C11.3224 4.75249 6.97559 3.00635 1.20312 3.00635C0.814812 3.00635 0.5 3.32116 0.5 3.70947V20.5133C0.5 20.9016 0.814812 21.2164 1.20312 21.2164C7.49366 21.2164 12.121 23.4543 12.1882 23.4873C12.2867 23.536 12.3935 23.5602 12.5 23.5602H12.5C12.5154 23.5602 12.5308 23.5596 12.5463 23.5586C12.5512 23.5583 12.5562 23.5576 12.5612 23.5572C12.5716 23.5563 12.5821 23.5553 12.5925 23.554C12.5983 23.5532 12.6042 23.5521 12.6101 23.5512C12.6195 23.5497 12.6289 23.5481 12.6383 23.5463C12.6446 23.545 12.6508 23.5435 12.657 23.5421C12.6659 23.5401 12.6748 23.538 12.6836 23.5356C12.69 23.5338 12.6964 23.5319 12.7028 23.53C12.7114 23.5274 12.7198 23.5247 12.7283 23.5218C12.7348 23.5196 12.7412 23.5173 12.7475 23.5149C12.7558 23.5118 12.764 23.5084 12.7723 23.505C12.7787 23.5024 12.785 23.4996 12.7914 23.4967C12.7995 23.493 12.8074 23.4891 12.8154 23.4851C12.8216 23.482 12.8278 23.4789 12.834 23.4755C12.8364 23.4743 12.8388 23.4732 12.8411 23.4719C12.8818 23.4493 16.985 21.2164 23.7969 21.2164C24.1852 21.2164 24.5 20.9016 24.5 20.5133V3.70947C24.5 3.32111 24.1852 3.00635 23.7969 3.00635ZM3.2892 6.64811C3.2892 6.45058 3.37227 6.26214 3.51814 6.12893C3.66397 5.99571 3.85888 5.93004 4.05589 5.94785C6.09767 6.13319 8.05466 6.51358 9.87238 7.07852C10.1664 7.16993 10.3668 7.44204 10.3668 7.74996V10.5625C10.3668 10.786 10.2605 10.9961 10.0806 11.1287C9.95839 11.2187 9.81191 11.2656 9.66369 11.2656C9.59375 11.2656 9.52344 11.2552 9.45505 11.2339C7.73155 10.6983 5.87225 10.3372 3.92877 10.1608C3.56656 10.1279 3.2892 9.82422 3.2892 9.46057V6.64811ZM10.3352 19.2086C10.2415 19.51 9.96373 19.7033 9.66392 19.7033C9.59478 19.7033 9.52452 19.693 9.45505 19.6714C7.73155 19.1358 5.87225 18.7747 3.92877 18.5983C3.54205 18.5632 3.25695 18.2212 3.29206 17.8345C3.32717 17.4477 3.66941 17.1626 4.05584 17.1978C6.09763 17.3831 8.05461 17.7635 9.87233 18.3285C10.2432 18.4438 10.4504 18.8378 10.3352 19.2086ZM10.3352 16.3961C10.2415 16.6975 9.96373 16.8908 9.66392 16.8908C9.59478 16.8908 9.52452 16.8805 9.45505 16.8589C7.73155 16.3233 5.87225 15.9622 3.92877 15.7858C3.54205 15.7507 3.25695 15.4087 3.29206 15.022C3.32717 14.6352 3.66941 14.3501 4.05584 14.3853C6.09763 14.5706 8.05461 14.951 9.87233 15.516C10.2432 15.6313 10.4504 16.0253 10.3352 16.3961ZM10.3352 13.5836C10.2415 13.885 9.96373 14.0783 9.66392 14.0783C9.59478 14.0783 9.52452 14.068 9.45505 14.0464C7.73155 13.5108 5.87225 13.1497 3.92877 12.9733C3.54205 12.9382 3.25695 12.5962 3.29206 12.2095C3.32717 11.8227 3.66941 11.5374 4.05584 11.5728C6.09763 11.7581 8.05461 12.1385 9.87233 12.7035C10.2432 12.8188 10.4504 13.2128 10.3352 13.5836ZM21.0478 18.5984C19.1044 18.7748 17.2451 19.1358 15.5215 19.6715C15.452 19.6931 15.3817 19.7034 15.3126 19.7034C15.0128 19.7034 14.735 19.5101 14.6414 19.2087C14.5262 18.8379 14.7333 18.4439 15.1042 18.3286C16.922 17.7637 18.8789 17.3833 20.9207 17.1979C21.3071 17.1628 21.6494 17.4479 21.6845 17.8346C21.7196 18.2213 21.4346 18.5633 21.0478 18.5984ZM21.0478 15.7859C19.1044 15.9623 17.2451 16.3233 15.5215 16.859C15.452 16.8806 15.3817 16.8909 15.3126 16.8909C15.0128 16.8909 14.735 16.6976 14.6414 16.3962C14.5262 16.0254 14.7333 15.6314 15.1042 15.5161C16.922 14.9512 18.8789 14.5708 20.9207 14.3854C21.3071 14.3501 21.6494 14.6354 21.6845 15.0221C21.7196 15.4088 21.4346 15.7508 21.0478 15.7859ZM21.0478 12.9734C19.1044 13.1498 17.2451 13.5108 15.5215 14.0465C15.452 14.0681 15.3817 14.0784 15.3126 14.0784C15.0128 14.0784 14.735 13.8851 14.6414 13.5837C14.5262 13.2129 14.7333 12.8189 15.1042 12.7036C16.922 12.1387 18.8789 11.7583 20.9207 11.5729C21.3071 11.5378 21.6494 11.8229 21.6845 12.2096C21.7196 12.5963 21.4346 12.9383 21.0478 12.9734ZM21.0478 10.1608C19.1044 10.3373 17.2451 10.6983 15.5215 11.2339C15.452 11.2555 15.3817 11.2658 15.3126 11.2658C15.0128 11.2658 14.735 11.0726 14.6414 10.7712C14.5262 10.4004 14.7333 10.0063 15.1042 9.89107C16.922 9.32613 18.8789 8.94574 20.9207 8.76039C21.3071 8.72505 21.6494 9.01029 21.6845 9.3971C21.7196 9.78377 21.4346 10.1257 21.0478 10.1608ZM21.0478 7.34833C19.1044 7.52477 17.2451 7.8858 15.5215 8.42144C15.452 8.443 15.3817 8.45332 15.3126 8.45332C15.0128 8.45332 14.735 8.26005 14.6414 7.95869C14.5262 7.58786 14.7333 7.19383 15.1042 7.07857C16.922 6.51363 18.8789 6.13324 20.9207 5.94789C21.3071 5.91274 21.6494 6.19783 21.6845 6.5846C21.7196 6.97127 21.4346 7.31322 21.0478 7.34833Z" fill="#3A18D6"/>
</svg>
